0.0 0.641363360972610 0.0 -0.227817995681999 0.0 0.586454634664566 
0.0 0.641497189889330 0.0 -0.227860230831397 0.0 0.586363040897251 
0.0 0.642066724690997 0.0 -0.228039932741661 0.0 0.585973208005884 
0.0 0.644487775013074 0.0 -0.228803144853877 0.0 0.584315369796170 
0.0 0.654729610892102 0.0 -0.232019318314765 0.0 0.577289707378655 
0.0 0.716221885930944 0.0 -0.244561771968863 0.0 0.155056894951036 0.0 -0.504899558275480 
0.0 0.995388275868841 0.0 -0.326064508994096 0.0 0.189686064992883 0.0 -0.291935558455070 
0.0 1.251997104015436 0.0 -0.364402842686192 0.0 0.165746758509789 0.0 -0.076927138590215 0.0 0.032551120973155 0.0 -0.011623818468568 0.0 0.003158025042837 0.0 -0.000512984641403 