0.0 0.64147821894774 0.0 -0.22786442607483 0.0 0.58636637163588
0.0 0.64201338041244 0.0 -0.22803327307613 0.0 0.58600008011690
0.0 0.64428851132625 0.0 -0.22875048514155 0.0 0.58444225878983
0.0 0.65391678818681 0.0 -0.23177469919454 0.0 0.57783860826287
0.0 0.71174444268126 0.0 -0.24314358751693 0.0 0.15430034342373 0.0 -0.50815977227762
0.0 0.98061428301289 0.0 -0.32226441671908 0.0 0.18875673333696 0.0 -0.30390271824587
0.0 1.25032703677456 0.0 -0.35990170797386 0.0 0.15971833015472 0.0 -0.07091930426364 0.0 0.02776487875644 0.0 -0.00856570903505 0.0 0.00166306814507 